# xmcd
#
# Track frame offsets: 
#        150
#        17119
#        30612
#        45417
#        67444
#        82738
#        95450
#        110933
#        126258
#        141486
#        157891
#        174790
#
# Disc length: 2574 seconds
#
# Revision: 0
# Processed by: cddbd v1.5.2PL0 Copyright (c) Steve Scherf et al.
# Submitted via: ExactAudioCopyFreeDBPlugin 1.0
#
DISCID=9e0a0c0c
DTITLE=Slydigs - Never To Be Tamed
DYEAR=2012
DGENRE=Blues
TTITLE0=Worth Your Weight In Gold
TTITLE1=Bang, Bang And My Bullet Was Gone
TTITLE2=Stone Cold Killer
TTITLE3=The Love That Keeps On Giving
TTITLE4=Never To Be Tamed
TTITLE5=Something To Believe In
TTITLE6=She's My Rattlesnake
TTITLE7=I Can't Wait Forever
TTITLE8=The Bitter End
TTITLE9=Hell Fire Blues
TTITLE10=Electric Love
TTITLE11=Ain't No Place Like Nowhere
EXTD=
EXTT0=
EXTT1=
EXTT2=
EXTT3=
EXTT4=
EXTT5=
EXTT6=
EXTT7=
EXTT8=
EXTT9=
EXTT10=
EXTT11=
PLAYORDER=
